<svg id="joybudget" xmlns="http://www.w3.org/2000/svg" viewBox="0 0 730.99 178.23"><defs><style>.cls-1{fill:#ffb142;}.cls-2{fill:#706fd3;}</style></defs><title>GuestPanelArtboard 1</title><path class="cls-1" d="M32.76,58.26a48.35,48.35,0,0,1,5.82-1,67.47,67.47,0,0,1,7.13-.33,26.47,26.47,0,0,1,8.44,1.15,12.21,12.21,0,0,1,5.16,3.12,11.32,11.32,0,0,1,2.54,4.43,17.65,17.65,0,0,1,.74,5.09,14.36,14.36,0,0,1-.08,1.56q-.08.74-.25,1.56l-8,47.59q-.82,4.6-1.8,10.17T50,142.78a105.47,105.47,0,0,1-3.28,10.34,33.76,33.76,0,0,1-3.93,7.71,35.76,35.76,0,0,1-11,10.17q-6.23,3.61-15.89,3.61-8.68,0-12.29-4.6A17.29,17.29,0,0,1,0,159a35,35,0,0,1,.49-5.74,28.53,28.53,0,0,0,8.77-1.39A13,13,0,0,0,14.82,148a18.53,18.53,0,0,0,3.44-7q1.23-4.35,2.38-10.91Zm2.62-23a19.14,19.14,0,0,1,1.47-7.88,16.27,16.27,0,0,1,3.93-5.5,15.73,15.73,0,0,1,5.73-3.28,22.1,22.1,0,0,1,6.88-1.07,16.22,16.22,0,0,1,6.23,1.15,13.24,13.24,0,0,1,4.59,3A13.75,13.75,0,0,1,67,26a12.2,12.2,0,0,1,1,4.68,19.12,19.12,0,0,1-1.47,7.88,16.24,16.24,0,0,1-3.93,5.5,15.72,15.72,0,0,1-5.73,3.28A22.05,22.05,0,0,1,50,48.41a16,16,0,0,1-6.31-1.15,14.23,14.23,0,0,1-4.59-3A12,12,0,0,1,36.29,40,13.12,13.12,0,0,1,35.38,35.28Z"/><path class="cls-1" d="M67.49,105a57.36,57.36,0,0,1,3.19-19.12,46.22,46.22,0,0,1,9.26-15.84A44.84,44.84,0,0,1,94.77,59.33a47.22,47.22,0,0,1,19.9-4A40.15,40.15,0,0,1,130.08,58a29.24,29.24,0,0,1,17.2,18.05,40.18,40.18,0,0,1,2.13,13.21,62,62,0,0,1-2.87,18.87,46.73,46.73,0,0,1-8.6,15.92,41.51,41.51,0,0,1-14.42,11q-8.69,4.1-20.48,4.1a43.39,43.39,0,0,1-16.22-2.71,30.74,30.74,0,0,1-11.06-7.3,27.61,27.61,0,0,1-6.31-10.83A44,44,0,0,1,67.49,105Zm38.34,10.67a7.08,7.08,0,0,0,5.9-3,25,25,0,0,0,3.69-7.22,46.43,46.43,0,0,0,2-8.45A54.33,54.33,0,0,0,118,90.1a20,20,0,0,0-1.39-8q-1.39-3.2-5.65-3.2a7.29,7.29,0,0,0-5.82,2.87,23.09,23.09,0,0,0-3.85,7,40.4,40.4,0,0,0-2,8.7,65.61,65.61,0,0,0-.57,8,15.11,15.11,0,0,0,1.56,7.39Q101.73,115.7,105.83,115.7Z"/><path class="cls-1" d="M175.13,137.69h-6.55L155.31,60.23a32.87,32.87,0,0,1,8.44-2.54,52.28,52.28,0,0,1,8.44-.74q7.86,0,11.3,4.92t3.77,12.8l1.64,34.3h.66L202,73.19a28.14,28.14,0,0,1,7.29-11.49q5-4.76,13.19-4.76a41.34,41.34,0,0,1,9,1,50.26,50.26,0,0,1,7.7,2.3L197.9,146.39Q195.11,152,192.08,157a43,43,0,0,1-7,8.78,30,30,0,0,1-9.17,6A31.88,31.88,0,0,1,163.5,174a46.48,46.48,0,0,1-9.91-1,21.24,21.24,0,0,1-6.8-2.46,13.2,13.2,0,0,1-5-5.17,12.94,12.94,0,0,1-1.39-5.66,19.15,19.15,0,0,1,.41-3.69,13.82,13.82,0,0,1,1.64-4.18,17.65,17.65,0,0,1,3.36-4.1,23.15,23.15,0,0,1,5.41-3.61q2.78,4.27,5.49,5.42a11.92,11.92,0,0,0,4.34,1.15,14.67,14.67,0,0,0,6.8-1.48q2.86-1.48,5.16-6.73Z"/><path class="cls-2" d="M252.78,21.66a49.51,49.51,0,0,1,5.65-1,62.78,62.78,0,0,1,7-.33,25.7,25.7,0,0,1,8.35,1.15,12.93,12.93,0,0,1,5.16,3.12A10.14,10.14,0,0,1,281.45,29a19.78,19.78,0,0,1,.66,5.09,14.35,14.35,0,0,1-.08,1.56q-.08.74-.25,1.56l-4.26,24a23.55,23.55,0,0,1,7.95-4.43,33.24,33.24,0,0,1,9.91-1.31,22.54,22.54,0,0,1,9.42,2,21.35,21.35,0,0,1,7.54,5.74,27.14,27.14,0,0,1,5,9.52A44.51,44.51,0,0,1,319.13,86a61.83,61.83,0,0,1-3.28,20.1,49.83,49.83,0,0,1-9.67,16.9,46.67,46.67,0,0,1-15.81,11.65A51.29,51.29,0,0,1,268.68,139a80.53,80.53,0,0,1-16.79-1.72,56.12,56.12,0,0,1-17.45-7.47Zm15.89,91.57a9.5,9.5,0,0,0,4.59,1.15,9.24,9.24,0,0,0,6.55-2.63,21,21,0,0,0,4.59-6.48,36.89,36.89,0,0,0,2.7-8.29,41.47,41.47,0,0,0,.9-8.21q0-5.25-1.88-7.63A6.23,6.23,0,0,0,281,78.77q-3.77,0-5.49,2.46a13.05,13.05,0,0,0-2.21,5.25Z"/><path class="cls-2" d="M335.19,57.44a58.1,58.1,0,0,1,5.9-1.48,36,36,0,0,1,7-.66q9.34,0,13.19,3.36T365,68.93c0,.55,0,1.15-.08,1.81a16.84,16.84,0,0,1-.25,1.81l-5.9,34.79a15.74,15.74,0,0,0-.25,1.81c-.06.66-.08,1.26-.08,1.8a4.91,4.91,0,0,0,.9,3.12q.9,1.15,3.52,1.15,3.77,0,5.32-2.38a13.7,13.7,0,0,0,2-5.17l8.36-50.22A58,58,0,0,1,384.5,56a36,36,0,0,1,7-.66q9.34,0,13.19,3.36t3.69,10.26c0,.55,0,1.15-.08,1.81a17,17,0,0,1-.25,1.81l-7.54,44.15q-.33,2.46-.57,5t-.25,5a37.38,37.38,0,0,0,1,9.52,64.59,64.59,0,0,1-6.31,1.48,41.72,41.72,0,0,1-7.62.66q-6.88,0-10.57-1.64t-6-7.22q-1.64,1.81-3.44,3.53a18.63,18.63,0,0,1-4.34,3,26.11,26.11,0,0,1-6.14,2.13,40.59,40.59,0,0,1-8.85.82q-10.81,0-16.22-5.83T325.85,118a61,61,0,0,1,.49-7.55q.49-3.94,1.15-7.38Z"/><path class="cls-2" d="M473.79,21.66a49.54,49.54,0,0,1,5.65-1,62.79,62.79,0,0,1,7-.33,25.71,25.71,0,0,1,8.36,1.15,12.23,12.23,0,0,1,5.08,3.12A10.51,10.51,0,0,1,502.29,29a19.8,19.8,0,0,1,.66,5.09,14.35,14.35,0,0,1-.08,1.56q-.08.74-.25,1.56l-13.27,79.43q-.33,2.46-.57,5t-.25,5a37.38,37.38,0,0,0,1,9.52,61.52,61.52,0,0,1-6.47,1.48,44.47,44.47,0,0,1-7.78.66q-6.88,0-10.48-1.64t-5.9-7.22a27.46,27.46,0,0,1-9.58,7.47,30.93,30.93,0,0,1-12,2.05,21.4,21.4,0,0,1-9.26-2.05,23.86,23.86,0,0,1-7.7-5.83A28.19,28.19,0,0,1,415,122a33.7,33.7,0,0,1-2-11.73A75.73,75.73,0,0,1,416,88.78a53.85,53.85,0,0,1,8.52-17.4,42,42,0,0,1,13.27-11.65,35.22,35.22,0,0,1,17.37-4.27,30.18,30.18,0,0,1,12.61,2.46Zm-10,59.41A9.87,9.87,0,0,0,459,79.92a9.49,9.49,0,0,0-6.63,2.46,18,18,0,0,0-4.34,6.24,34.91,34.91,0,0,0-2.37,8.21,51.13,51.13,0,0,0-.74,8.37q0,10.34,6.39,10.34a6.45,6.45,0,0,0,5.57-2.46,12.49,12.49,0,0,0,2.29-5.25Z"/><path class="cls-2" d="M542.92,131.29a22.69,22.69,0,0,1-7.78,4.35,33.59,33.59,0,0,1-9.75,1.23,25.3,25.3,0,0,1-9.42-1.72,19.27,19.27,0,0,1-7.54-5.42,26.2,26.2,0,0,1-5-9.44,47,47,0,0,1-1.8-13.95,58.29,58.29,0,0,1,3.2-19.12,47.38,47.38,0,0,1,9.5-16.33A46.7,46.7,0,0,1,530,59.57,51.56,51.56,0,0,1,551.6,55.3,81.79,81.79,0,0,1,568.48,57,56,56,0,0,1,586,64.49l-10.65,62.85a148.83,148.83,0,0,1-4.26,17.48,45.26,45.26,0,0,1-7.78,14.93A36.46,36.46,0,0,1,549.8,170.1Q541.45,174,528.5,174q-2.46,0-5.41-.08a59.47,59.47,0,0,1-6.06-.49,53.78,53.78,0,0,1-6.31-1.23,27.18,27.18,0,0,1-6-2.3,23.42,23.42,0,0,1-8.19-6,12.75,12.75,0,0,1-2.95-8.45,16.13,16.13,0,0,1,3.11-9.27,19.3,19.3,0,0,1,8.35-6.81,31.77,31.77,0,0,0,9.26,8.7q4.83,2.79,12.37,2.79a14.3,14.3,0,0,0,9.91-3.45q3.85-3.45,5.49-11.49Zm8.52-50.22a9.56,9.56,0,0,0-4.59-1.14,9.7,9.7,0,0,0-6.47,2.29A17.84,17.84,0,0,0,536,87.92a29.59,29.59,0,0,0-2.54,7.59,41,41,0,0,0-.82,7.92q0,5.23,1.88,7.59a6.23,6.23,0,0,0,5.16,2.37q3.77,0,5.41-2.45a13.6,13.6,0,0,0,2.13-5.23Z"/><path class="cls-2" d="M617.3,105.19q.33,5.5,3.11,8.49a9.39,9.39,0,0,0,7.21,3A17.58,17.58,0,0,0,637,114.3a22,22,0,0,0,7-7.47,26.73,26.73,0,0,1,9.42,4.76,10.29,10.29,0,0,1,3.52,8.35,12.83,12.83,0,0,1-1.72,6.76,17.85,17.85,0,0,1-4.18,4.81,31.42,31.42,0,0,1-12.12,5.7,58.16,58.16,0,0,1-14.58,2,43.1,43.1,0,0,1-15.73-2.63,31.24,31.24,0,0,1-11.14-7.14,29.09,29.09,0,0,1-6.63-10.67,39.27,39.27,0,0,1-2.21-13.38,63.83,63.83,0,0,1,2.87-19.28,44.33,44.33,0,0,1,8.76-15.92A42.43,42.43,0,0,1,615,59.33q8.85-4,21-4a35.52,35.52,0,0,1,13.27,2.13,23.58,23.58,0,0,1,8.36,5.42A19.66,19.66,0,0,1,662,69.91a22,22,0,0,1,1.31,7.22q0,8.53-3.69,13.95a26.84,26.84,0,0,1-9.34,8.53A40.5,40.5,0,0,1,637.69,104a77.65,77.65,0,0,1-13.52,1.23Zm1.64-15.26a13.66,13.66,0,0,0,1.88.16h1.56a23.59,23.59,0,0,0,5.08-.57,18.68,18.68,0,0,0,4.67-1.64A9.5,9.5,0,0,0,635.48,85a7.07,7.07,0,0,0,1.31-4.27,4.91,4.91,0,0,0-1.15-3.2q-1.15-1.39-3.93-1.4a10.91,10.91,0,0,0-8.11,3.45Q620.24,83,618.94,89.93Z"/><path class="cls-2" d="M680,33.31a48.36,48.36,0,0,1,5.82-1A67.45,67.45,0,0,1,693,32a25.7,25.7,0,0,1,8.36,1.15,12.92,12.92,0,0,1,5.16,3.12A10.13,10.13,0,0,1,709,40.7a19.8,19.8,0,0,1,.66,5.09,14.35,14.35,0,0,1-.08,1.56q-.08.74-.25,1.56l-1.64,9.68H731L727.06,83H703.64L700,104.87q-.66,3.78.9,5.5a5.55,5.55,0,0,0,4.34,1.72,8,8,0,0,0,5.24-1.89,19,19,0,0,0,4.1-4.84q7,2,10.32,5.66t2.62,10.09a13.72,13.72,0,0,1-2,5.91,31.8,31.8,0,0,1-3.85,4.59q-8.36,7.55-22.61,7.55a49.76,49.76,0,0,1-12.45-1.48,26.59,26.59,0,0,1-10-4.84,22.63,22.63,0,0,1-6.63-8.62,31.4,31.4,0,0,1-2.37-13,41.1,41.1,0,0,1,.25-4.51q.25-2.22.57-4.84Z"/></svg>